<svg width="440" height="470" viewBox="0 0 440 470" fill="none" xmlns="http://www.w3.org/2000/svg">
<g clip-path="url(#clip0_36438_10)">
<rect width="440" height="470" fill="white"/>
<path d="M439.239 121.1H103.002V344.658H439.239V121.1Z" fill="white"/>
<path d="M439.244 344.66C439.244 344.66 439.244 344.301 439.244 343.614C439.244 342.927 439.244 341.901 439.244 340.556C439.244 337.867 439.244 333.882 439.188 328.673C439.188 318.274 439.12 302.994 439.064 283.491C439.008 244.545 438.918 188.705 438.817 121.132L439.301 121.56L103.097 121.65L103.683 121.132C103.683 201.515 103.683 277.624 103.683 344.69L103.154 344.221L345.833 344.451L414.76 344.58L433.053 344.64H437.77H438.974H437.792H433.143L414.952 344.7L346.148 344.829L103.12 345.058H102.478V344.59C102.478 277.525 102.478 201.415 102.422 121.032V120.514H103.041L439.244 120.614H439.74V121.032C439.638 188.765 439.56 244.684 439.492 283.69C439.436 303.154 439.402 318.393 439.368 328.772C439.368 333.942 439.368 337.906 439.368 340.576C439.368 341.901 439.368 342.907 439.368 343.564C439.368 344.221 439.244 344.66 439.244 344.66Z" fill="#263238"/>
<path d="M437.554 148.481C437.274 148.513 436.992 148.529 436.71 148.531H434.211L424.62 148.62C416.301 148.68 404.244 148.71 389.363 148.7C359.576 148.7 318.443 148.511 273.01 148.182L156.657 147.355L121.388 147.106L111.809 147.007L109.31 146.947C109.029 146.975 108.746 146.975 108.465 146.947C108.744 146.902 109.027 146.885 109.31 146.897H111.809L121.388 146.807C129.719 146.748 141.764 146.718 156.657 146.718C186.432 146.718 227.576 146.917 273.021 147.246L389.363 148.072L424.631 148.311L434.211 148.421H436.71C436.993 148.415 437.276 148.435 437.554 148.481Z" fill="#263238"/>
<path d="M124.966 132.418C124.968 133.113 124.737 133.792 124.303 134.37C123.868 134.948 123.25 135.399 122.525 135.666C121.801 135.932 121.003 136.003 120.233 135.868C119.464 135.733 118.756 135.398 118.202 134.908C117.647 134.417 117.269 133.791 117.117 133.11C116.964 132.429 117.043 131.723 117.345 131.082C117.646 130.441 118.156 129.893 118.809 129.509C119.462 129.124 120.23 128.92 121.015 128.922C122.062 128.925 123.065 129.294 123.805 129.949C124.546 130.604 124.963 131.492 124.966 132.418Z" fill="#263238"/>
<path d="M140.808 132.418C140.81 133.112 140.58 133.791 140.146 134.369C139.712 134.947 139.094 135.398 138.37 135.665C137.646 135.932 136.849 136.002 136.08 135.868C135.31 135.734 134.603 135.401 134.048 134.911C133.493 134.421 133.114 133.796 132.96 133.116C132.806 132.436 132.884 131.73 133.184 131.089C133.483 130.448 133.991 129.899 134.643 129.514C135.295 129.128 136.062 128.922 136.846 128.922C137.895 128.922 138.901 129.29 139.644 129.946C140.386 130.601 140.805 131.49 140.808 132.418V132.418Z" fill="#263238"/>
<path d="M152.68 135.967C154.869 135.967 156.643 134.397 156.643 132.461C156.643 130.524 154.869 128.954 152.68 128.954C150.492 128.954 148.718 130.524 148.718 132.461C148.718 134.397 150.492 135.967 152.68 135.967Z" fill="#263238"/>
<path d="M230.706 278.25H161.61V324.02H230.706V278.25Z" fill="#EBEBEB"/>
<path d="M306.589 278.25H237.493V324.02H306.589V278.25Z" fill="#EBEBEB"/>
<path d="M395.025 278.25H325.929V324.02H395.025V278.25Z" fill="#EBEBEB"/>
<path d="M282.557 255.768C250.21 236.037 254.231 196.379 262.72 179.585L288.05 176.214C279.455 185.335 278.354 219.03 289.079 226.531C299.803 234.032 319.831 234.358 327.812 224.8C334.085 217.297 335.06 199.633 345.59 198.43C341.299 178.6 357.256 157.377 379.481 153.361C380.72 147.818 383.367 142.617 387.226 138.149C391.084 133.681 396.054 130.061 401.761 127.562C407.469 125.062 413.767 123.746 420.182 123.714C426.598 123.682 432.965 124.935 438.806 127.377L437.937 191.342C437.937 191.342 444.654 221.841 423.166 228.477C415.826 230.743 408.571 229.184 402.409 226.449C401.931 227.41 401.248 228.279 400.397 229.009C397.052 231.815 391.852 232.458 387.281 231.501C386.691 231.377 386.143 231.23 385.544 231.043C380.644 244.031 366.737 257.814 353.907 263.432C335.347 271.613 299.957 266.375 282.557 255.768Z" fill="#F5F5F5"/>
<path d="M349.878 205.096C349.878 205.096 349.847 204.986 349.737 204.775L349.259 203.877C349.038 203.478 348.774 202.987 348.514 202.392C348.253 201.798 347.903 201.12 347.628 200.331C345.88 195.889 345.12 191.202 345.389 186.533C345.557 183.331 346.226 180.174 347.376 177.153C348.679 173.663 350.644 170.406 353.189 167.524C359.056 160.871 367.448 156.354 376.841 154.79C378.187 154.556 379.553 154.449 380.819 154.333L381.068 154.317L381.08 154.103C381.52 149.194 383.119 144.442 385.772 140.156C388.426 135.87 392.075 132.145 396.482 129.225C398.017 128.254 399.617 127.363 401.272 126.559C404.232 125.093 407.392 123.962 410.679 123.191C415.423 122.045 420.414 121.862 425.287 122.656C426.155 122.778 426.898 122.949 427.553 123.095C428.106 123.208 428.652 123.346 429.191 123.507L430.199 123.775C430.31 123.815 430.427 123.84 430.546 123.847C430.546 123.847 430.44 123.79 430.218 123.727L429.229 123.411C428.695 123.228 428.149 123.076 427.594 122.955C426.942 122.787 426.194 122.602 425.299 122.442C420.385 121.567 415.332 121.695 410.522 122.816C407.193 123.569 403.992 124.694 400.995 126.165C399.313 126.966 397.689 127.859 396.134 128.839C394.495 129.905 392.955 131.086 391.528 132.371C385.086 138.17 381.157 145.821 380.416 154.01L380.682 153.771C375.193 154.157 369.873 155.548 365.054 157.856C360.235 160.164 356.021 163.341 352.676 167.187C350.105 170.112 348.126 173.416 346.822 176.956C345.671 180.031 345.015 183.243 344.872 186.496C344.632 191.205 345.459 195.926 347.306 200.378C347.579 201.077 347.894 201.763 348.248 202.434C348.48 202.938 348.744 203.43 349.039 203.909C349.267 204.277 349.441 204.568 349.57 204.789C349.663 204.899 349.766 205.002 349.878 205.096V205.096Z" fill="#263238"/>
<path d="M336.735 211.017C336.847 211.008 336.745 210.116 337.025 208.734C337.195 207.931 337.462 207.148 337.824 206.4C338.279 205.488 338.855 204.629 339.54 203.842C340.256 203.073 341.073 202.384 341.973 201.788C342.715 201.312 343.516 200.911 344.36 200.593C345.816 200.056 346.809 199.954 346.791 199.863C346.773 199.772 346.536 199.829 346.079 199.861C345.437 199.924 344.808 200.055 344.205 200.253C343.299 200.529 342.442 200.914 341.656 201.395C339.71 202.584 338.201 204.253 337.309 206.203C336.949 206.994 336.711 207.826 336.6 208.678C336.511 209.247 336.505 209.826 336.582 210.4C336.651 210.809 336.705 211.024 336.735 211.017Z" fill="#263238"/>
<path d="M348.183 234.865C348.183 234.865 348.239 234.234 348.485 233.125C348.835 231.547 349.537 230.053 350.549 228.73C352.055 226.732 354.252 225.231 356.817 224.447C360.013 223.477 363.528 223.638 366.642 224.896L367.076 225.074L367.049 224.664C366.997 223.298 367.119 221.935 367.412 220.599C368.167 217.161 370.001 213.999 372.703 211.476C374.946 209.446 377.7 207.916 380.746 207.008C382.801 206.396 384.953 206.062 387.131 206.018C388.676 205.998 389.536 206.093 389.53 206.044C389.33 205.985 389.122 205.951 388.913 205.941C388.319 205.864 387.721 205.822 387.122 205.815C384.363 205.777 381.633 206.228 379.091 207.143C376.55 208.057 374.249 209.416 372.322 211.141C370.371 212.918 368.848 215.032 367.844 217.356C366.839 219.681 366.373 222.17 366.473 224.676L366.886 224.436C363.631 223.114 359.949 222.958 356.615 224.001C353.966 224.838 351.713 226.428 350.197 228.527C349.192 229.898 348.525 231.447 348.241 233.074C348.166 233.51 348.129 233.952 348.13 234.395C348.122 234.553 348.14 234.711 348.183 234.865V234.865Z" fill="#263238"/>
<path d="M266.405 242.134C266.531 242.377 266.679 242.611 266.848 242.834C267.166 243.274 267.617 243.944 268.252 244.768C270.088 247.078 272.162 249.239 274.448 251.225C277.851 254.149 281.628 256.726 285.701 258.904C288.106 260.198 290.593 261.37 293.15 262.414C295.889 263.548 298.697 264.549 301.56 265.412C311.612 268.486 322.164 270.054 332.761 270.05C335.967 270.052 339.161 269.805 342.306 269.312C343.41 269.113 344.268 268.943 344.837 268.79C345.132 268.73 345.42 268.646 345.696 268.541C345.393 268.572 345.093 268.622 344.799 268.69C344.223 268.817 343.368 268.943 342.257 269.116C339.117 269.531 335.939 269.725 332.755 269.694C322.225 269.594 311.755 267.988 301.766 264.942C298.923 264.088 296.134 263.098 293.413 261.975C290.868 260.947 288.391 259.792 285.996 258.516C281.93 256.369 278.147 253.838 274.717 250.97C272.441 249.023 270.353 246.92 268.472 244.68C267.804 243.884 267.342 243.231 267.01 242.772C266.829 242.545 266.626 242.332 266.405 242.134V242.134Z" fill="#263238"/>
<path d="M283.501 219.412C283.579 219.855 283.726 220.287 283.938 220.697C284.396 221.825 284.973 222.915 285.662 223.954C287.919 227.427 291.233 230.307 295.235 232.271C299.237 234.236 303.769 235.208 308.327 235.079C309.691 235.05 311.048 234.912 312.378 234.667C312.877 234.595 313.362 234.471 313.824 234.296C312 234.524 310.161 234.663 308.316 234.711C303.853 234.741 299.438 233.744 295.523 231.823C291.607 229.901 288.33 227.123 286.025 223.771C285.078 222.365 284.235 220.909 283.501 219.412V219.412Z" fill="#263238"/>
<path d="M278.504 174.762C280.806 178.961 282.147 183.506 282.45 188.132C282.487 188.79 282.289 189.438 281.883 189.984C281.476 190.53 280.882 190.947 280.186 191.175C279.489 191.403 278.724 191.431 277.999 191.255C277.275 191.078 276.628 190.707 276.15 190.193L276.072 190.152C276.815 195.786 277.134 201.451 277.027 207.109C277.02 207.905 276.733 208.675 276.206 209.313C275.679 209.952 274.937 210.428 274.083 210.675C273.228 210.923 272.303 210.931 271.433 210.698C270.564 210.464 269.792 210.001 269.225 209.372C258.959 198.088 253.626 183.984 254.216 169.677L278.504 174.762Z" fill="#029491"/>
<g opacity="0.3">
<path d="M275.627 179.807C276.065 180.507 276.342 181.273 276.441 182.062C276.486 182.455 276.4 182.849 276.195 183.196C275.99 183.543 275.674 183.828 275.286 184.016C274.063 184.502 272.519 183.602 271.316 184.157C270.113 184.712 270.188 186.322 270.498 187.552L271.5 191.444C271.748 192.398 271.899 193.588 270.979 194.136C270.059 194.684 268.607 194.076 267.711 193.333C265.632 191.583 264.055 189.423 263.115 187.04C262.175 184.657 261.9 182.12 262.314 179.649L275.627 179.807Z" fill="black"/>
</g>
<path d="M276.714 224.742C277.578 225.248 278.187 226.029 278.412 226.916C278.637 227.803 278.458 228.727 277.915 229.487C277.373 230.248 276.508 230.784 275.509 230.982C274.51 231.18 273.455 231.022 272.572 230.544C271.69 230.065 271.049 229.304 270.788 228.424C270.528 227.543 270.669 226.614 271.18 225.837C271.691 225.059 272.532 224.495 273.522 224.266C274.512 224.037 275.572 224.161 276.473 224.611" fill="#029491"/>
<path d="M265.385 5.94059C271.243 5.86262 282.493 19.1138 293.307 41.3461C299.703 54.4541 303.706 68.3443 305.165 82.4905L308.719 178.737L280.065 179.103L263.44 179.321L234.786 179.687L231.564 92.3423C231.241 83.7975 231.845 75.26 233.368 66.8469C234.85 58.4147 237.1 50.1141 240.095 42.0257C248.657 19.4394 259.532 6.01011 265.385 5.94059Z" fill="#F5F5F5"/>
<path d="M232.659 120.319L232.39 120.522C224.614 126.358 218.444 133.697 214.337 141.998C210.229 150.298 208.289 159.347 208.659 168.476L209.118 180.071L234.367 163.681L232.659 120.319Z" fill="#029491"/>
<path d="M232.658 120.32L232.665 120.544L232.681 121.168L232.781 123.545L233.048 132.527L234.174 163.669L234.254 163.55L211.28 178.504L209.001 179.924L209.291 180.082L209.012 173.253C208.941 171.008 208.797 168.793 208.816 166.632C208.792 162.472 209.243 158.328 210.16 154.263C210.981 150.59 212.199 147.001 213.796 143.547C214.494 141.906 215.372 140.409 216.142 138.934C216.912 137.46 217.802 136.121 218.719 134.877C221.454 130.884 224.712 127.198 228.425 123.895C229.703 122.685 230.827 121.879 231.517 121.267L232.614 120.365L232.315 120.574L231.488 121.135C230.765 121.718 229.621 122.513 228.324 123.712C224.55 126.997 221.244 130.682 218.478 134.688C217.55 135.926 216.712 137.305 215.869 138.751C215.026 140.197 214.206 141.726 213.493 143.371C211.874 146.839 210.637 150.444 209.797 154.136C208.867 158.221 208.406 162.386 208.423 166.569C208.402 168.753 208.542 170.954 208.622 173.204L208.91 180.06L208.923 180.393L209.226 180.198L211.505 178.777L234.514 163.83L234.56 163.762L234.6 163.703L233.253 132.418L232.856 123.493L232.755 121.116C232.74 120.864 232.741 120.667 232.723 120.517L232.658 120.32Z" fill="#263238"/>
<path d="M306.844 117.789C306.844 117.789 306.989 117.867 307.143 117.95C315.248 123.421 321.881 130.395 326.552 138.358C331.223 146.321 333.813 155.069 334.131 163.957L334.55 175.254L308.397 160.002L306.844 117.789Z" fill="#029491"/>
<path d="M306.843 117.787L306.837 117.968L306.858 118.553L306.903 120.874L307.181 129.567L308.192 160.028L308.2 160.113L308.267 160.149C315.606 164.439 323.652 169.146 332.088 174.074C332.9 174.511 333.677 174.999 334.403 175.426L334.722 175.597L334.71 175.269L334.469 168.617C334.373 166.429 334.345 164.278 334.162 162.158C333.869 158.086 333.102 154.044 331.873 150.094C330.774 146.53 329.285 143.062 327.427 139.739C326.612 138.151 325.619 136.708 324.739 135.292C323.86 133.876 322.873 132.598 321.845 131.435C318.835 127.615 315.321 124.116 311.377 121.013C310.003 119.893 308.824 119.142 308.062 118.594C307.685 118.333 307.399 118.133 307.165 117.972C306.932 117.812 306.847 117.8 306.847 117.8C307.03 117.899 307.332 118.154 307.987 118.645C308.642 119.136 309.905 119.977 311.258 121.109C315.173 124.233 318.666 127.739 321.668 131.558C322.663 132.749 323.534 134.08 324.543 135.405C325.551 136.729 326.381 138.256 327.192 139.83C329.026 143.146 330.495 146.604 331.58 150.155C332.789 154.085 333.544 158.105 333.834 162.153C334.003 164.254 334.026 166.414 334.122 168.602L334.362 175.254L334.663 175.106C333.919 174.705 333.136 174.226 332.358 173.76C323.916 168.84 315.854 164.137 308.51 159.855L308.595 159.981L307.385 129.655L307.015 120.923L306.922 118.576L306.888 117.972L306.843 117.787Z" fill="#263238"/>
<path d="M264.91 5.93415C269.435 5.72294 277.208 13.7559 285.48 27.6091L244.308 30.5841C251.531 16.3079 259.108 6.19188 264.91 5.93415Z" fill="#029491"/>
<path d="M235.236 164.215C235.248 164.313 251.668 164.273 271.913 164.123C292.158 163.974 308.586 163.789 308.574 163.691C308.562 163.593 292.208 163.634 271.906 163.787C251.605 163.941 235.234 164.122 235.236 164.215Z" fill="#263238"/>
<path d="M235.699 167.135C235.653 167.201 252.121 167.187 272.367 167.038C292.612 166.889 309.039 166.703 309.028 166.605C309.016 166.507 292.615 166.558 272.36 166.702C252.105 166.846 235.687 167.037 235.699 167.135Z" fill="#263238"/>
<path d="M235.76 170.214C235.772 170.312 252.192 170.272 272.437 170.122C292.683 169.973 309.11 169.788 309.098 169.69C309.086 169.592 292.686 169.642 272.431 169.786C252.176 169.93 235.758 170.121 235.76 170.214Z" fill="#263238"/>
<path d="M235.836 173.307C235.848 173.405 252.274 173.356 272.513 173.215C292.753 173.074 309.199 172.842 309.151 172.816C309.103 172.79 292.738 172.769 272.483 172.913C252.228 173.057 235.84 173.206 235.836 173.307Z" fill="#263238"/>
<path d="M235.882 176.37C235.836 176.437 252.304 176.423 272.559 176.279C292.814 176.135 309.222 175.939 309.22 175.846C309.217 175.753 292.807 175.799 272.552 175.943C252.297 176.087 235.928 176.303 235.882 176.37Z" fill="#263238"/>
<path d="M269.6 119.096C269.6 119.096 269.514 119.223 269.532 119.546C269.551 119.869 269.506 120.285 269.489 120.855C269.474 122.005 269.514 123.637 269.578 125.664C269.689 129.72 269.923 135.327 270.224 141.514C270.526 147.702 270.831 153.3 271.073 157.359L271.389 162.164L271.498 163.462C271.494 163.614 271.515 163.766 271.561 163.914C271.577 163.761 271.579 163.608 271.569 163.455L271.541 162.154L271.346 157.345L270.586 141.526L269.828 125.684L269.599 120.926C269.585 120.363 269.547 119.913 269.562 119.62L269.6 119.096Z" fill="#263238"/>
<path d="M232.576 119.479C232.588 119.577 249.034 119.46 269.302 119.22C289.569 118.98 306.023 118.718 306.021 118.625C306.019 118.532 289.572 118.649 269.295 118.884C249.018 119.118 232.574 119.386 232.576 119.479Z" fill="#263238"/>
<path d="M264.902 151.129C264.775 151.005 264.611 150.916 264.429 150.873C263.946 150.691 263.41 150.661 262.911 150.789C262.53 150.873 262.182 151.044 261.903 151.285C261.623 151.526 261.423 151.829 261.32 152.164C261.171 152.58 261.174 153.03 261.33 153.449C261.486 153.869 261.786 154.237 262.189 154.502C262.591 154.768 263.076 154.917 263.575 154.928C264.073 154.94 264.56 154.813 264.968 154.567C265.301 154.385 265.573 154.128 265.755 153.821C265.937 153.515 266.023 153.171 266.005 152.822C266.005 152.376 265.84 151.938 265.535 151.576C265.303 151.335 265.108 151.253 265.097 151.27C265.085 151.287 265.232 151.401 265.412 151.66C265.667 152.013 265.796 152.425 265.781 152.84C265.775 153.14 265.68 153.432 265.505 153.687C265.33 153.942 265.081 154.152 264.784 154.294C264.436 154.488 264.027 154.583 263.611 154.566C263.196 154.55 262.794 154.422 262.458 154.2C262.123 153.978 261.871 153.673 261.735 153.325C261.598 152.977 261.585 152.603 261.696 152.252C261.775 151.963 261.937 151.699 262.168 151.484C262.398 151.269 262.689 151.112 263.012 151.028C263.447 150.894 263.919 150.877 264.369 150.979C264.72 151.066 264.884 151.155 264.902 151.129Z" fill="#263238"/>
<path d="M263.717 132.508C263.717 132.508 263.593 132.36 263.244 132.252C262.762 132.07 262.225 132.04 261.727 132.168C261.345 132.251 260.998 132.422 260.718 132.664C260.439 132.905 260.238 133.208 260.136 133.542C259.986 133.959 259.99 134.408 260.145 134.828C260.301 135.247 260.602 135.616 261.004 135.881C261.407 136.147 261.892 136.295 262.39 136.307C262.889 136.318 263.376 136.192 263.783 135.945C264.117 135.763 264.388 135.506 264.57 135.2C264.752 134.894 264.838 134.549 264.82 134.201C264.814 133.757 264.648 133.324 264.345 132.964C264.232 132.829 264.083 132.72 263.912 132.648C263.912 132.648 264.042 132.788 264.222 133.047C264.477 133.4 264.606 133.812 264.591 134.227C264.586 134.526 264.492 134.816 264.318 135.07C264.144 135.324 263.896 135.532 263.6 135.673C263.252 135.867 262.843 135.963 262.428 135.947C262.013 135.932 261.611 135.805 261.275 135.584C260.939 135.363 260.686 135.059 260.549 134.712C260.411 134.364 260.397 133.99 260.506 133.639C260.586 133.349 260.749 133.083 260.98 132.867C261.212 132.651 261.504 132.493 261.828 132.407C262.262 132.278 262.731 132.264 263.179 132.366C263.536 132.444 263.7 132.533 263.717 132.508Z" fill="#263238"/>
<path d="M273.84 103.109C273.708 102.99 273.545 102.902 273.367 102.852C272.882 102.678 272.349 102.648 271.849 102.768C271.454 102.851 271.095 103.028 270.808 103.279C270.522 103.53 270.32 103.846 270.224 104.193C270.076 104.61 270.081 105.059 270.238 105.479C270.395 105.898 270.696 106.265 271.099 106.529C271.502 106.794 271.987 106.942 272.486 106.952C272.984 106.963 273.47 106.835 273.877 106.588C274.21 106.406 274.482 106.149 274.664 105.843C274.846 105.537 274.932 105.192 274.914 104.844C274.913 104.399 274.746 103.964 274.438 103.606C274.203 103.352 274.017 103.274 274.006 103.291C274.102 103.426 274.207 103.556 274.321 103.681C274.569 104.037 274.697 104.447 274.69 104.861C274.682 105.161 274.586 105.452 274.411 105.707C274.236 105.962 273.989 106.172 273.693 106.316C273.336 106.486 272.93 106.566 272.521 106.548C272.111 106.529 271.713 106.412 271.37 106.21C271.048 105.978 270.806 105.67 270.673 105.325C270.54 104.979 270.52 104.608 270.617 104.257C270.695 103.968 270.858 103.703 271.088 103.489C271.319 103.274 271.61 103.117 271.933 103.032C272.367 102.898 272.84 102.881 273.29 102.984C273.658 103.045 273.822 103.134 273.84 103.109Z" fill="#263238"/>
<path d="M278.347 89.955C278.245 89.9691 278 96.469 277.765 104.458C277.529 112.446 277.516 118.956 277.627 118.947C277.739 118.938 277.974 112.433 278.209 104.444C278.445 96.4559 278.482 89.9704 278.347 89.955Z" fill="#263238"/>
<g opacity="0.3">
<path d="M308.34 159.285C308.34 159.285 306.526 131.325 306.739 117.784C310.035 124.298 313.739 131.753 314.67 138.802C315.538 146.151 313.281 153.457 308.34 159.285V159.285Z" fill="black"/>
</g>
<path d="M262.973 91.5455C250.965 88.8265 243.561 78.1495 246.437 67.6976C249.314 57.2458 261.38 50.9771 273.389 53.696C285.398 56.415 292.801 67.092 289.925 77.5439C287.049 87.9957 274.982 94.2644 262.973 91.5455Z" fill="white"/>
<path d="M257.921 89.7854C257.826 89.719 257.722 89.6628 257.612 89.618C257.38 89.4925 257.081 89.3303 256.705 89.1263C256.209 88.8686 255.736 88.5774 255.29 88.2556C254.654 87.8509 254.051 87.4083 253.484 86.9311C251.903 85.6504 250.542 84.1744 249.444 82.5509C247.982 80.4053 246.992 78.0413 246.528 75.5855C245.918 72.3923 246.226 69.1298 247.423 66.0977C248.62 63.0655 250.668 60.3606 253.379 58.2314C254.924 56.991 256.681 55.9713 258.588 55.2082C259.568 54.809 260.576 54.466 261.608 54.1813C262.666 53.9366 263.74 53.7488 264.826 53.6191C269.431 53.0621 274.145 53.8228 278.275 55.7896C282.406 57.7564 285.737 60.8258 287.78 64.5479C288.265 65.4146 288.688 66.3064 289.047 67.218C289.361 68.1405 289.601 69.0801 289.767 70.0298C290.12 71.8695 290.15 73.7408 289.856 75.5781C289.338 78.9756 287.803 82.1746 285.408 84.8486C283.483 86.9745 281.061 88.7092 278.302 89.9387C275.543 91.1682 272.51 91.8646 269.4 91.9822C267.277 92.0744 265.144 91.8862 263.072 91.4239C262.312 91.2678 261.564 91.0701 260.831 90.8318C260.283 90.6801 259.749 90.4909 259.233 90.2658C258.837 90.1091 258.515 89.9806 258.26 89.8887C258.155 89.8391 258.043 89.8016 257.927 89.777C258.024 89.8401 258.128 89.8961 258.236 89.9443C258.467 90.0699 258.795 90.19 259.179 90.3635C259.689 90.6084 260.22 90.8153 260.767 90.982C261.49 91.2353 262.232 91.4443 262.986 91.6077C265.071 92.1345 267.231 92.3713 269.388 92.3097C272.558 92.2226 275.658 91.5404 278.481 90.3085C281.304 89.0766 283.786 87.3234 285.76 85.166C288.244 82.432 289.841 79.1488 290.384 75.657C290.692 73.774 290.668 71.8551 290.312 69.9679C289.996 67.9898 289.317 66.0643 288.303 64.2667C287.285 62.3953 285.935 60.6747 284.304 59.1706C282.617 57.6275 280.677 56.3157 278.552 55.2806C274.314 53.2765 269.485 52.5016 264.767 53.0681C263.641 53.1981 262.529 53.4009 261.439 53.6747C260.383 53.9692 259.35 54.322 258.346 54.7311C256.397 55.5201 254.602 56.5694 253.023 57.8426C250.073 60.1862 247.902 63.1938 246.735 66.5538C245.822 69.218 245.567 72.0335 245.988 74.8126C246.409 77.5918 247.496 80.2708 249.177 82.6711C250.304 84.3115 251.707 85.7949 253.336 87.0699C253.914 87.5498 254.535 87.9868 255.194 88.3765C255.65 88.6917 256.134 88.9734 256.641 89.2188C257.018 89.4228 257.317 89.5849 257.549 89.7105C257.669 89.7491 257.794 89.7743 257.921 89.7854V89.7854Z" fill="#263238"/>
<path d="M265.389 5.94132C265.302 5.94044 265.216 5.94379 265.131 5.95139C264.872 5.9567 264.616 5.99273 264.37 6.0585C263.397 6.31014 262.488 6.71736 261.686 7.26021C258.668 9.43293 256.089 12.0421 254.056 14.9805C250.701 19.5712 247.795 24.4109 245.369 29.4483C242.08 36.1353 239.34 43.0308 237.172 50.0818C235.987 54.0181 234.913 58.1803 233.949 62.5683C232.956 67.1451 232.227 71.7677 231.766 76.4184C231.286 81.4161 231.12 86.4383 231.268 91.4622L231.839 107.48L234.485 179.648L234.494 179.907L234.787 179.904C246.65 179.747 259.083 179.587 271.747 179.438C284.411 179.288 296.846 179.106 308.719 178.954L309.006 178.96L308.998 178.701L306.343 106.505L305.732 90.4887L305.424 82.8722C305.268 80.3469 304.865 77.8727 304.525 75.4436C302.972 66.5599 300.476 57.8104 297.071 49.3119C294.176 42.3786 290.783 35.609 286.914 29.0447C284.082 24.0938 280.835 19.3323 277.2 14.8011C274.999 11.9023 272.286 9.33041 269.168 7.18586C268.337 6.65271 267.404 6.25915 266.416 6.02528C266.162 5.96758 265.902 5.9388 265.641 5.93966C265.554 5.93048 265.466 5.92928 265.379 5.93607C265.722 5.94922 266.063 5.99504 266.397 6.07272C267.369 6.3243 268.285 6.72819 269.101 7.265C272.204 9.43643 274.902 12.0274 277.093 14.9393C280.687 19.4809 283.9 24.2466 286.705 29.1969C290.515 35.758 293.856 42.5187 296.707 49.4381C300.075 57.9204 302.535 66.6505 304.055 75.5121C304.449 77.901 304.817 80.368 304.961 82.8523L305.237 90.4972L305.823 106.512L308.443 178.7L308.727 178.438L271.761 178.913L234.8 179.38L235.102 179.636L232.405 107.464L231.819 91.4493C231.66 86.4413 231.811 81.4343 232.272 76.451C232.722 71.6408 233.492 67.0394 234.405 62.6547C235.319 58.2699 236.366 54.0966 237.548 50.1704C239.686 43.1311 242.392 36.245 245.646 29.5646C248.031 24.5272 250.892 19.6825 254.198 15.0813C256.206 12.1474 258.748 9.53224 261.725 7.33912C262.511 6.7921 263.402 6.37197 264.357 6.0975C264.695 6.023 265.04 5.9708 265.389 5.94132V5.94132Z" fill="#263238"/>
<path d="M368.878 263.305H173.377C167.248 263.305 161.369 261.151 157.035 257.316C152.701 253.481 150.266 248.28 150.266 242.856C150.266 237.433 152.701 232.231 157.035 228.396C161.369 224.561 167.248 222.407 173.377 222.407H368.878C375.007 222.407 380.886 224.561 385.22 228.396C389.554 232.231 391.989 237.433 391.989 242.856V242.856C391.989 248.28 389.554 253.481 385.22 257.316C380.886 261.151 375.007 263.305 368.878 263.305Z" fill="white"/>
<path d="M368.877 263.302L370.251 263.212C370.817 263.204 371.382 263.154 371.939 263.063C372.717 262.977 373.488 262.847 374.247 262.675L375.62 262.356C376.093 262.216 376.577 262.047 377.095 261.878L377.883 261.619L378.682 261.27C379.253 261.048 379.806 260.792 380.337 260.503C382.936 259.179 385.213 257.412 387.035 255.304C387.579 254.703 388.072 254.067 388.51 253.401C388.991 252.715 389.417 252 389.782 251.26C390.176 250.487 390.522 249.696 390.817 248.889C390.941 248.471 391.065 248.052 391.189 247.614L391.38 246.967L391.493 246.299L391.729 244.935L391.797 243.54V242.823V242.106C391.797 241.618 391.797 241.11 391.695 240.642C391.417 238.611 390.814 236.626 389.905 234.745C387.818 230.581 384.232 227.145 379.707 224.973C377.255 223.814 374.584 223.061 371.827 222.752C368.99 222.473 366.007 222.613 362.979 222.583L173.421 222.663C171.135 222.69 168.863 222.988 166.667 223.549C164.509 224.167 162.456 225.041 160.565 226.149C158.725 227.273 157.066 228.613 155.635 230.133C154.244 231.68 153.107 233.394 152.258 235.223C151.438 237.049 150.907 238.966 150.682 240.92C150.501 242.861 150.614 244.814 151.019 246.728C151.867 250.524 153.935 254.024 156.974 256.808C159.953 259.551 163.752 261.489 167.927 262.396C168.95 262.621 169.988 262.788 171.034 262.894C172.093 262.894 173.128 263.023 174.198 263.003H205.155L290.382 263.063L347.793 263.143L363.418 263.193H367.481H368.866H367.481H363.418H347.793L290.382 263.282L205.155 263.332H174.198C173.14 263.332 172.048 263.262 170.978 263.222C169.905 263.113 168.841 262.943 167.792 262.714C163.503 261.793 159.598 259.809 156.535 256.997C154.996 255.576 153.685 253.974 152.64 252.236C151.608 250.475 150.851 248.599 150.389 246.658C149.976 244.688 149.863 242.678 150.051 240.681C150.479 236.632 152.245 232.783 155.128 229.615C158.052 226.401 161.996 224.035 166.453 222.822C168.696 222.242 171.017 221.934 173.353 221.906L362.911 221.975C365.939 221.975 368.9 221.876 371.804 222.174C374.623 222.481 377.353 223.252 379.853 224.445C384.445 226.664 388.075 230.167 390.176 234.406C391.091 236.313 391.694 238.325 391.965 240.383C392.022 240.881 392.022 241.379 392.056 241.867V242.594V243.311C392.056 243.789 391.999 244.307 391.977 244.735C391.954 245.164 391.808 245.662 391.729 246.11L391.617 246.787L391.425 247.445C391.29 247.883 391.166 248.311 391.042 248.73C390.671 249.546 390.423 250.383 389.984 251.13C389.606 251.876 389.169 252.599 388.678 253.292C388.23 253.956 387.73 254.592 387.181 255.194C385.342 257.312 383.046 259.086 380.427 260.414C379.884 260.693 379.324 260.946 378.75 261.171L377.939 261.509L377.151 261.768C376.622 261.938 376.138 262.107 375.654 262.236L374.281 262.545C373.515 262.716 372.736 262.839 371.95 262.914C371.392 262.993 370.828 263.037 370.262 263.043L368.877 263.302Z" fill="#263238"/>
<path d="M367.288 247.007C371.306 243.451 371.306 237.687 367.288 234.132C363.27 230.576 356.755 230.576 352.737 234.132C348.719 237.687 348.719 243.451 352.737 247.007C356.755 250.562 363.27 250.562 367.288 247.007Z" fill="white"/>
<path d="M360.009 251.332C357.861 251.334 355.762 250.772 353.975 249.718C352.189 248.663 350.796 247.164 349.974 245.409C349.151 243.654 348.935 241.722 349.353 239.859C349.772 237.995 350.806 236.283 352.324 234.94C353.842 233.596 355.777 232.682 357.883 232.311C359.989 231.941 362.172 232.132 364.155 232.86C366.139 233.588 367.833 234.821 369.025 236.401C370.217 237.982 370.851 239.84 370.849 241.74C370.846 244.283 369.703 246.721 367.671 248.519C365.638 250.318 362.883 251.329 360.009 251.332V251.332ZM360.009 233.133C358.084 233.132 356.203 233.635 354.602 234.579C353.001 235.523 351.753 236.867 351.015 238.439C350.277 240.012 350.083 241.742 350.457 243.412C350.831 245.082 351.756 246.617 353.116 247.821C354.476 249.026 356.209 249.847 358.096 250.179C359.983 250.512 361.939 250.342 363.717 249.691C365.495 249.04 367.014 247.937 368.083 246.522C369.153 245.106 369.723 243.442 369.723 241.74C369.723 239.459 368.7 237.271 366.879 235.658C365.057 234.044 362.586 233.136 360.009 233.133Z" fill="#263238"/>
<path d="M368.608 246.696L368.007 247.538L376.716 252.404L377.317 251.562L368.608 246.696Z" fill="#263238"/>
<path d="M73.7059 438.852L74.3926 467.817L31.3006 468.714C31.4469 465.267 53.5332 457.886 53.5332 457.886L52.1824 439.35L73.7059 438.852Z" fill="#455A64"/>
<g opacity="0.6">
<path d="M66.8139 456.052C67.2199 456.138 67.5748 456.355 67.8083 456.662C68.0418 456.968 68.1368 457.34 68.0747 457.706C67.9608 458.067 67.6972 458.378 67.3363 458.575C66.9754 458.773 66.5438 458.843 66.1272 458.771C65.9021 458.745 65.686 458.676 65.4936 458.569C65.3012 458.463 65.1369 458.321 65.0119 458.153C64.8868 457.985 64.8039 457.796 64.7687 457.597C64.7335 457.399 64.7468 457.196 64.8078 457.002C64.8688 456.809 64.976 456.629 65.1222 456.475C65.2684 456.321 65.4502 456.197 65.6553 456.111C65.8604 456.025 66.084 455.978 66.3111 455.975C66.5381 455.972 66.7633 456.012 66.9715 456.092" fill="white"/>
</g>
<g opacity="0.6">
<path d="M74.3926 467.812L74.1787 464.894L32.9441 466.886C32.9441 466.886 31.0529 467.623 31.3006 468.749L74.3926 467.812Z" fill="white"/>
</g>
<path d="M52.8332 457.716C52.8332 457.895 53.8913 457.955 54.9495 458.503C56.0077 459.05 56.5705 459.768 56.7619 459.698C56.9533 459.628 56.6156 458.612 55.321 457.975C54.0264 457.337 52.7769 457.556 52.8332 457.716Z" fill="#263238"/>
<path d="M48.3562 459.376C48.3562 459.546 49.2342 459.825 49.9772 460.552C50.7202 461.279 50.9453 462.066 51.1029 462.056C51.2605 462.046 51.4181 461.06 50.4838 460.153C49.5494 459.247 48.3562 459.207 48.3562 459.376Z" fill="#263238"/>
<path d="M45.9226 463.95C46.114 463.95 46.3842 463.103 45.8213 462.147C45.2585 461.191 44.2566 460.832 44.1665 460.982C44.0765 461.131 44.7069 461.629 45.1572 462.416C45.6074 463.203 45.72 463.94 45.9226 463.95Z" fill="#263238"/>
<path d="M53.1068 453.462C53.1969 453.622 54.165 453.363 55.3582 453.402C56.5515 453.442 57.4858 453.741 57.6096 453.592C57.7335 453.442 56.7991 452.825 55.3582 452.795C53.9173 452.765 52.983 453.333 53.1068 453.462Z" fill="#263238"/>
<path d="M53.9867 449.167C54.7001 449.314 55.4443 449.297 56.1481 449.117C56.9232 448.985 57.6786 448.774 58.3995 448.489C58.8184 448.32 59.2245 448.127 59.6153 447.912C59.8531 447.795 60.0695 447.648 60.2569 447.473C60.3913 447.35 60.4718 447.188 60.4842 447.016C60.4965 446.845 60.44 446.675 60.3245 446.537C60.215 446.411 60.0731 446.31 59.9106 446.243C59.748 446.175 59.5696 446.143 59.3901 446.149C59.1195 446.155 58.8508 446.191 58.5909 446.258C58.131 446.362 57.6827 446.502 57.2513 446.677C56.5383 446.962 55.881 447.345 55.3038 447.812C54.3244 448.599 53.998 449.266 54.0768 449.296C54.1556 449.326 54.6396 448.798 55.6415 448.131C56.2259 447.748 56.861 447.43 57.5327 447.185C57.9362 447.047 58.3499 446.933 58.771 446.846C59.2213 446.736 59.604 446.726 59.7278 446.846C59.8517 446.965 59.7278 446.936 59.7278 447.055C59.5914 447.18 59.4361 447.287 59.2663 447.374C58.902 447.58 58.5263 447.769 58.1406 447.942C57.4779 448.237 56.7842 448.473 56.0693 448.649C55.3616 448.776 54.6655 448.949 53.9867 449.167V449.167Z" fill="#263238"/>
<path d="M54.2367 449.416C54.6258 448.899 54.8081 448.282 54.7545 447.663C54.7779 446.986 54.6596 446.31 54.4055 445.671C54.2522 445.293 54.0561 444.929 53.8202 444.585C53.6875 444.346 53.4893 444.139 53.2436 443.984C52.9979 443.829 52.7124 443.731 52.413 443.699C52.2245 443.707 52.042 443.76 51.8853 443.853C51.7285 443.946 51.6035 444.075 51.5237 444.227C51.4179 444.438 51.3532 444.664 51.3323 444.894C51.2586 445.296 51.2586 445.707 51.3323 446.109C51.4763 446.785 51.8091 447.419 52.3005 447.952C53.1785 448.868 54.0566 449.058 54.0791 448.998C54.1016 448.938 53.4036 448.589 52.7282 447.703C52.3456 447.197 52.0956 446.622 51.9965 446.02C51.9348 445.673 51.9348 445.32 51.9965 444.974C51.9965 444.595 52.2104 444.276 52.3793 444.316C52.5481 444.356 52.9759 444.585 53.156 444.894C53.3782 445.21 53.5667 445.543 53.7188 445.89C53.9784 446.463 54.1379 447.068 54.1916 447.683C54.3605 448.729 54.1579 449.386 54.2367 449.416Z" fill="#263238"/>
<path d="M106.36 441.264L110.514 470L153.291 465.299C152.571 461.912 129.505 457.48 129.505 457.48L127.771 438.963L106.36 441.264Z" fill="#455A64"/>
<g opacity="0.6">
<path d="M116.023 457.378C115.633 457.515 115.316 457.776 115.135 458.11C114.953 458.444 114.92 458.827 115.043 459.181C115.219 459.522 115.532 459.793 115.921 459.94C116.311 460.088 116.748 460.101 117.148 459.978C117.562 459.835 117.899 459.557 118.089 459.202C118.28 458.846 118.309 458.44 118.173 458.066C117.947 457.737 117.595 457.492 117.181 457.377C116.766 457.261 116.319 457.283 115.921 457.438" fill="white"/>
</g>
<g opacity="0.6">
<path d="M110.514 469.997L110.233 467.078L151.344 463.672C151.344 463.672 153.291 464.11 153.291 465.295L110.514 469.997Z" fill="white"/>
</g>
<path d="M130.13 457.219C130.13 457.399 129.116 457.588 128.16 458.265C127.203 458.943 126.764 459.73 126.561 459.68C126.358 459.63 126.561 458.594 127.687 457.797C128.813 457 130.152 457.05 130.13 457.219Z" fill="#263238"/>
<path d="M134.825 458.275C134.904 458.444 134.037 458.843 133.429 459.659C132.821 460.476 132.72 461.273 132.517 461.293C132.315 461.313 132.033 460.297 132.81 459.301C133.587 458.305 134.803 458.135 134.825 458.275Z" fill="#263238"/>
<path d="M137.987 462.486C137.807 462.546 137.402 461.709 137.807 460.693C138.212 459.677 139.136 459.189 139.237 459.318C139.338 459.448 138.809 460.035 138.494 460.872C138.179 461.709 138.201 462.446 137.987 462.486Z" fill="#263238"/>
<path d="M129.173 453.045C129.105 453.214 128.115 453.045 126.922 453.274C125.728 453.503 124.873 453.881 124.749 453.742C124.625 453.602 125.413 452.885 126.798 452.666C128.182 452.447 129.263 452.895 129.173 453.045Z" fill="#263238"/>
<path d="M127.571 448.906C126.891 449.139 126.154 449.215 125.432 449.125C124.646 449.102 123.867 448.991 123.113 448.797C122.667 448.69 122.23 448.554 121.807 448.388C121.552 448.305 121.313 448.187 121.098 448.04C120.946 447.934 120.841 447.784 120.799 447.617C120.758 447.45 120.784 447.275 120.873 447.123C120.965 446.986 121.09 446.869 121.24 446.781C121.391 446.693 121.561 446.637 121.74 446.615C122.009 446.585 122.281 446.585 122.55 446.615C123.019 446.655 123.483 446.736 123.935 446.854C124.691 447.043 125.409 447.335 126.062 447.721C127.188 448.378 127.582 448.996 127.515 449.036C127.447 449.075 126.873 448.607 125.781 448.089C124.76 447.594 123.632 447.295 122.471 447.213C121.999 447.163 121.616 447.213 121.526 447.382C121.436 447.551 121.526 447.482 121.605 447.581C121.762 447.687 121.937 447.771 122.122 447.83C122.513 447.994 122.915 448.134 123.327 448.249C124.031 448.451 124.755 448.597 125.488 448.687C126.188 448.713 126.884 448.786 127.571 448.906V448.906Z" fill="#263238"/>
<path d="M127.333 449.168C126.863 448.705 126.582 448.116 126.534 447.495C126.399 446.836 126.399 446.161 126.534 445.503C126.617 445.109 126.749 444.725 126.928 444.357C127.017 444.103 127.177 443.873 127.393 443.688C127.61 443.503 127.876 443.37 128.166 443.301C128.354 443.282 128.543 443.31 128.714 443.38C128.885 443.45 129.03 443.561 129.134 443.7C129.268 443.899 129.37 444.113 129.438 444.337C129.571 444.728 129.628 445.135 129.607 445.542C129.592 446.246 129.367 446.933 128.954 447.534C128.245 448.531 127.401 448.859 127.367 448.799C127.333 448.74 127.975 448.301 128.493 447.345C128.785 446.794 128.935 446.191 128.932 445.582C128.929 445.244 128.868 444.908 128.752 444.586C128.639 444.208 128.425 443.919 128.256 443.979C128.088 444.038 127.727 444.327 127.592 444.646C127.426 444.967 127.291 445.301 127.187 445.642C127.036 446.243 126.98 446.86 127.018 447.475C127.131 448.521 127.401 449.168 127.333 449.168Z" fill="#263238"/>
<path d="M40.2827 285.125L107.364 287.027C107.364 287.027 123.18 380.438 122.741 386.943L132.489 454.675L104.121 455.562C104.121 455.562 99.6187 433.579 96.5455 418.538C94.4742 408.577 90.6918 393.855 89.6674 385.498C88.643 377.141 72.0501 318.762 72.0501 318.762C72.0501 318.762 73.2771 386.494 73.2434 389.283C73.2096 392.072 76.5304 455.482 76.5304 455.482H48.3878C46.9356 444.037 43.4797 398.238 42.7593 388.985C41.4084 372.271 37.1307 325.057 36.5566 312.995C35.9825 300.932 40.2827 285.125 40.2827 285.125Z" fill="#263238"/>
<path d="M44.7121 285.585C45.0256 284.181 45.0256 282.736 44.7121 281.332C44.3824 282.735 44.3824 284.183 44.7121 285.585V285.585Z" fill="#455A64"/>
<path d="M41.9147 286.711C42.4487 284.92 42.2698 283.021 41.4081 281.332C41.4386 282.233 41.5364 283.132 41.7008 284.022C41.7039 284.921 41.7754 285.82 41.9147 286.711V286.711Z" fill="#455A64"/>
<path d="M66.9738 282.258C67.5183 282.357 68.0142 282.605 68.3922 282.965C68.5808 283.155 68.7199 283.379 68.7997 283.622C68.8795 283.865 68.8979 284.12 68.8537 284.37C68.7583 284.656 68.5754 284.914 68.3251 285.114C68.0748 285.315 67.7669 285.45 67.4353 285.506C67.1036 285.562 66.7611 285.535 66.4453 285.43C66.1295 285.324 65.8527 285.143 65.6455 284.908C65.5033 284.689 65.4156 284.447 65.3884 284.196C65.3612 283.945 65.3951 283.692 65.4879 283.453C65.6853 282.991 66.0492 282.599 66.5235 282.338C66.5235 282.338 66.3321 282.338 66.0507 282.447C65.651 282.649 65.3411 282.965 65.1727 283.344C65.0318 283.625 64.9666 283.932 64.9822 284.24C64.9979 284.547 65.0939 284.848 65.2627 285.117C65.5107 285.433 65.857 285.679 66.2597 285.825C66.6624 285.971 67.1043 286.011 67.5319 285.939C67.9594 285.867 68.3544 285.688 68.6689 285.422C68.9834 285.155 69.204 284.814 69.304 284.44C69.3501 284.133 69.3151 283.822 69.2018 283.53C69.0885 283.238 68.9 282.973 68.6511 282.756C68.3332 282.461 67.9134 282.269 67.4579 282.208C67.1427 282.179 66.9738 282.238 66.9738 282.258Z" fill="#455A64"/>
<path d="M97.8986 385.343C100.348 384.686 102.747 383.891 105.081 382.962C107.479 382.168 109.818 381.24 112.083 380.183C109.631 380.843 107.228 381.638 104.889 382.563C102.496 383.36 100.161 384.288 97.8986 385.343V385.343Z" fill="#455A64"/>
<path d="M101.513 144.73C101.299 141.274 98.8904 139.142 95.5245 137.379C93.8277 136.508 91.918 136.012 89.9581 135.934C87.9982 135.856 86.0459 136.198 84.2675 136.931C81.9035 137.927 79.8322 139.62 77.2431 139.919C72.9654 140.407 68.9241 136.931 64.7365 137.777C63.487 138.043 62.3799 138.682 61.6031 139.588C60.8264 140.493 60.4281 141.609 60.4759 142.745C60.5236 143.881 61.0145 144.968 61.8651 145.82C62.7157 146.672 63.8735 147.237 65.1417 147.419C62.3387 147.778 60.7627 150.916 61.7646 153.236C62.7665 155.557 65.7271 156.922 68.5188 156.972C71.3624 156.892 74.1268 156.124 76.5113 154.75C78.9541 153.495 81.2393 151.981 83.7947 150.906C86.3031 149.707 89.2091 149.329 92.0011 149.84C95.7046 150.706 98.3275 153.824 99.2844 157.071C100.241 160.318 99.836 163.815 99.2844 167.161C98.7328 170.508 97.9786 173.885 98.3388 177.262C98.3361 177.453 98.3835 177.643 98.4772 177.816C98.571 177.988 98.7085 178.14 98.8791 178.258C99.442 178.537 100.095 178.068 100.511 177.63C105.252 172.653 108.84 166.899 111.071 160.697C112.365 157.111 113.074 153.615 111.532 150.109C109.99 146.603 104.778 143.266 101.468 144.69" fill="#263238"/>
<path d="M105.144 161.424L98.8966 195.559C97.7709 201.934 93.0429 208.1 81.7408 206.008C72.0823 203.538 72.8027 197.392 74.0635 189.812C74.0635 189.812 63.4369 187.371 64.3937 177.809C64.844 173.187 66.6451 163.745 68.435 155.218C69.3486 150.803 72.1075 146.854 76.1626 144.158C80.2177 141.461 85.2718 140.214 90.3187 140.666L91.3656 140.755C102.521 142.379 107.238 151.603 105.144 161.424Z" fill="#FFBE9D"/>
<path d="M74.0665 189.811C79.0468 190.242 84.0625 189.402 88.5205 187.39C88.5205 187.39 84.2879 194.482 73.6274 192.67L74.0665 189.811Z" fill="#EB996E"/>
<path d="M70.5497 163.573C70.5049 163.928 70.6189 164.284 70.8672 164.565C71.1155 164.846 71.4783 165.03 71.878 165.077C72.0721 165.11 72.2717 165.107 72.4648 165.07C72.6578 165.033 72.8403 164.961 73.0012 164.86C73.1622 164.758 73.2983 164.629 73.4012 164.48C73.5042 164.331 73.5719 164.164 73.6003 163.991C73.6451 163.637 73.5311 163.281 73.2828 163C73.0345 162.718 72.6717 162.535 72.272 162.487C72.078 162.456 71.879 162.459 71.6865 162.497C71.4941 162.535 71.3122 162.607 71.1516 162.708C70.991 162.809 70.855 162.938 70.7516 163.087C70.6483 163.235 70.5796 163.401 70.5497 163.573Z" fill="#263238"/>
<path d="M70.2165 160.106C70.3854 160.306 71.6462 159.638 73.301 159.798C74.9558 159.957 76.0927 160.794 76.2953 160.624C76.498 160.455 76.2278 160.216 75.7438 159.828C75.0743 159.322 74.2446 159.013 73.3685 158.941C72.5061 158.857 71.6364 159.025 70.892 159.419C70.3404 159.718 70.1377 160.017 70.2165 160.106Z" fill="#263238"/>
<path d="M85.6512 165.688C85.6065 166.043 85.7204 166.399 85.9687 166.68C86.217 166.961 86.5799 167.145 86.9796 167.193C87.1737 167.225 87.3733 167.223 87.5663 167.186C87.7594 167.148 87.9419 167.077 88.1028 166.975C88.2637 166.874 88.3998 166.744 88.5028 166.595C88.6057 166.446 88.6735 166.28 88.7019 166.107C88.7467 165.752 88.6327 165.396 88.3844 165.115C88.1361 164.834 87.7732 164.65 87.3736 164.603C87.1796 164.571 86.9805 164.575 86.7881 164.613C86.5956 164.651 86.4138 164.722 86.2532 164.824C86.0926 164.925 85.9566 165.054 85.8532 165.202C85.7498 165.351 85.6811 165.516 85.6512 165.688V165.688Z" fill="#263238"/>
<path d="M86.1677 161.833C86.3478 162.023 87.5974 161.365 89.2521 161.515C90.9069 161.664 92.0439 162.511 92.2465 162.351C92.4491 162.192 92.179 161.943 91.6949 161.554C91.0254 161.049 90.1958 160.74 89.3197 160.668C88.4589 160.587 87.5915 160.751 86.8431 161.136C86.2915 161.435 86.0889 161.744 86.1677 161.833Z" fill="#263238"/>
<path d="M79.233 172.182C78.3881 171.855 77.4988 171.628 76.5876 171.504C76.1711 171.434 75.7771 171.325 75.732 171.056C75.7443 170.667 75.8852 170.289 76.1373 169.97C76.6439 169.104 77.1729 168.187 77.7133 167.231C79.9647 163.326 81.5519 160.099 81.3718 160.02C79.7354 162.241 78.2976 164.572 77.0716 166.992L75.5407 169.761C75.2298 170.189 75.0947 170.699 75.1579 171.205C75.2021 171.344 75.282 171.472 75.3913 171.58C75.5007 171.687 75.6366 171.77 75.7883 171.823C76.0182 171.894 76.2559 171.944 76.4975 171.972C77.3963 172.141 78.3149 172.211 79.233 172.182V172.182Z" fill="#263238"/>
<path d="M86.7057 156.049C86.8183 156.467 88.4956 156.428 90.4205 156.806C92.3455 157.185 93.8652 157.802 94.1579 157.463C94.293 157.294 94.0678 156.896 93.4712 156.467C92.6844 155.926 91.7699 155.548 90.7955 155.362C89.8212 155.176 88.812 155.186 87.8427 155.392C87.0547 155.571 86.6607 155.86 86.7057 156.049Z" fill="#263238"/>
<path d="M71.3054 155.914C71.5643 156.283 72.7463 156.034 74.1196 156.143C75.493 156.253 76.63 156.591 76.9339 156.263C77.069 156.103 76.9339 155.755 76.4499 155.396C75.8132 154.963 75.0467 154.706 74.2459 154.657C73.4451 154.607 72.6456 154.767 71.947 155.117C71.3954 155.416 71.1928 155.745 71.3054 155.914Z" fill="#263238"/>
<path d="M103.467 168.416C103.659 168.356 111.1 167.131 110.12 173.635C109.141 180.14 101.959 177.938 101.981 177.749C102.004 177.56 103.467 168.416 103.467 168.416Z" fill="#FFBE9D"/>
<path d="M104.595 175.551C104.595 175.551 104.708 175.641 104.91 175.76C105.199 175.909 105.541 175.955 105.867 175.89C106.383 175.678 106.825 175.349 107.15 174.936C107.474 174.523 107.668 174.041 107.713 173.539C107.82 172.984 107.781 172.415 107.601 171.876C107.566 171.662 107.472 171.459 107.326 171.285C107.181 171.111 106.989 170.972 106.768 170.88C106.627 170.826 106.469 170.818 106.322 170.858C106.175 170.898 106.05 170.984 105.968 171.099C105.833 171.268 105.867 171.408 105.822 171.408C105.777 171.408 105.687 171.278 105.822 171.019C105.885 170.864 106.009 170.733 106.171 170.651C106.393 170.538 106.655 170.506 106.903 170.561C107.185 170.657 107.436 170.814 107.632 171.018C107.829 171.221 107.965 171.465 108.028 171.726C108.257 172.329 108.315 172.972 108.197 173.599C108.147 174.177 107.907 174.73 107.507 175.19C107.107 175.65 106.565 175.997 105.946 176.189C105.743 176.212 105.537 176.196 105.343 176.141C105.148 176.086 104.97 175.993 104.82 175.87C104.584 175.711 104.573 175.561 104.595 175.551Z" fill="#EB996E"/>
<path d="M69.322 146.364C70.5822 144.608 72.32 143.159 74.3764 142.151C78.6906 139.777 83.7397 138.665 88.808 138.973C93.8954 139.324 98.6299 141.41 102.013 144.79C104.599 147.563 106.208 150.947 106.639 154.522C107.06 158.082 106.677 161.681 105.513 165.11C105.153 166.654 104.288 168.071 103.026 169.184C102.181 169.821 100.774 170.18 100.02 169.503C99.5989 169.057 99.3574 168.5 99.3333 167.919C98.4891 162.759 97.7011 157.211 100.335 152.55C99.1705 150.76 97.6035 149.201 95.7311 147.968C94.7904 147.357 93.7215 146.918 92.5869 146.677C91.4523 146.436 90.2748 146.397 89.1232 146.563C85.7461 147.161 83.3821 149.81 80.5341 151.544C78.4808 152.772 76.1269 153.55 73.6667 153.815C71.2064 154.08 68.7102 153.824 66.3839 153.068L69.322 146.364Z" fill="#263238"/>
<path d="M77.7677 176.139C77.8531 176.757 78.0388 177.361 78.3193 177.932C78.4631 178.217 78.6725 178.473 78.9342 178.682C79.1959 178.891 79.5041 179.05 79.839 179.148C80.2068 179.216 80.588 179.201 80.9478 179.105C81.3076 179.01 81.6346 178.836 81.8991 178.6C82.4155 178.114 82.7463 177.498 82.8447 176.837C82.9572 176.239 82.8447 175.492 82.1805 175.293C81.9063 175.238 81.6217 175.238 81.3475 175.293L77.5876 175.9" fill="#EB996E"/>
<path d="M78.5591 178.916C79.175 179.062 79.8156 179.109 80.4503 179.055C81.1048 178.959 81.6951 178.65 82.1051 178.189C82.3458 177.908 82.5164 177.585 82.6057 177.242C82.6949 176.898 82.7008 176.542 82.6229 176.197C82.5853 176.02 82.5209 175.849 82.4316 175.689C82.3302 175.529 82.3527 175.539 82.1952 175.539C81.9944 175.559 81.7952 175.588 81.5985 175.629L80.9794 175.728L78.8406 176.047C78.1884 176.184 77.5169 176.234 76.848 176.197C77.4437 175.924 78.0868 175.742 78.7505 175.659C79.3584 175.519 80.0676 175.38 80.8668 175.22L81.4747 175.101C81.6998 175.101 81.8687 175.011 82.1614 174.991C82.3428 174.978 82.5242 175.017 82.6792 175.101C82.8114 175.192 82.9191 175.307 82.9944 175.44C83.1103 175.644 83.1937 175.862 83.2421 176.087C83.3403 176.512 83.3296 176.951 83.2108 177.371C83.0919 177.792 82.868 178.183 82.5554 178.517C82.0368 179.053 81.3007 179.385 80.5066 179.444C79.9916 179.499 79.4692 179.427 78.9982 179.235C78.6717 179.075 78.5366 178.946 78.5591 178.916Z" fill="#263238"/>
<path d="M51.1445 162.103L49.3997 161.685L22.2364 185.042L0.195097 187.393C0.195097 187.393 0.420241 181.506 8.69418 173.996C16.1238 167.282 33.4034 159.314 39.2571 155.19C40.0128 154.625 40.8685 154.174 41.7899 153.855L51.1445 162.103Z" fill="#FFBE9D"/>
<path d="M51.1596 150.984L53.9401 150.287L60.4917 147.538L67.9439 149.998C67.9439 149.998 67.7751 152.249 65.8163 151.632L73.6287 153.913C73.6287 153.913 72.9871 155.556 72.6381 155.666C72.2891 155.775 77.2197 156.134 77.2197 156.134C77.2197 156.134 77.2197 158.355 72.548 158.315C67.8764 158.275 66.064 157.568 66.064 157.568L62.3154 158.455L62.4617 160.447L67.5724 160.377L67.336 162.907C65.165 163.313 62.9703 163.612 60.7619 163.804C60.7619 163.804 52.882 163.903 50.7431 162.987C48.6043 162.07 45.8801 160.766 45.8801 160.766L41.7938 153.873L51.1596 150.984Z" fill="#FFBE9D"/>
<path d="M58.1956 152.148C58.1956 152.208 58.6346 152.019 59.3213 151.74C60.2406 151.39 61.1255 150.974 61.9667 150.495H61.629L61.9329 150.664C62.8632 151.19 63.912 151.53 65.0061 151.66C65.8391 151.76 66.3569 151.66 66.3569 151.66C64.9206 151.357 63.5354 150.888 62.2369 150.266L61.9554 150.106L61.7866 150.007L61.6177 150.116C60.7059 150.674 59.749 151.112 59.1186 151.461C58.4882 151.809 58.1393 152.098 58.1956 152.148Z" fill="#EB996E"/>
<path d="M60.5918 155.666C60.5918 155.666 61.0984 155.825 61.8526 155.536C62.6068 155.248 63.4511 154.54 64.5205 154.142H64.2504C64.7304 154.428 65.2347 154.681 65.7588 154.899C67.0766 155.456 68.5095 155.768 69.969 155.815C70.5686 155.883 71.1779 155.825 71.7476 155.646C69.7743 155.506 67.8376 155.096 66.0065 154.431C65.5077 154.226 65.0261 153.989 64.5656 153.724L64.4192 153.654H64.2954C63.0796 154.202 62.3704 154.929 61.7063 155.228C61.0421 155.526 60.5918 155.586 60.5918 155.666Z" fill="#EB996E"/>
<path d="M53.6092 157.828C53.6092 157.907 54.1834 157.758 55.0727 157.768C56.224 157.781 57.3478 158.081 58.3147 158.635C58.9545 159 59.5024 159.478 59.9244 160.039L59.992 160.129H60.0933C60.9602 160.347 61.8604 160.445 62.7612 160.418C61.9549 160.056 61.0885 159.81 60.1946 159.69L60.3635 159.79C59.941 159.142 59.3507 158.593 58.6411 158.186C57.5831 157.572 56.322 157.291 55.0614 157.389C54.0933 157.489 53.5755 157.778 53.6092 157.828Z" fill="#EB996E"/>
<path d="M45.8829 160.748C45.9504 160.801 46.0263 160.845 46.108 160.878L46.8172 161.236L49.5415 162.541C50.1855 162.891 50.8779 163.165 51.6015 163.358C52.4726 163.537 53.3564 163.664 54.2469 163.736C56.1606 163.906 58.3445 163.975 60.7647 163.975L63.7028 163.707C64.7899 163.626 65.8671 163.463 66.9223 163.218H67.0349V163.089C67.1925 162.222 67.3614 161.276 67.5415 160.31L67.5978 160.031H67.2826L62.4195 160.21L62.7122 160.429C62.7122 159.822 62.6109 159.145 62.5659 158.437L62.352 158.696L66.1118 157.81H65.9205C67.7456 158.301 69.6414 158.556 71.549 158.567C72.5382 158.622 73.5314 158.579 74.5096 158.437C75.0437 158.379 75.5576 158.221 76.0175 157.973C76.4774 157.726 76.8727 157.395 77.1775 157.003C77.3472 156.741 77.4473 156.448 77.4702 156.146V155.917H77.1888C76.0631 155.828 74.8586 155.738 73.7216 155.628L72.8886 155.529H72.7085V155.579C72.7424 155.606 72.7668 155.641 72.7788 155.679C72.7908 155.718 72.7898 155.759 72.776 155.798C72.776 155.887 72.5734 156.007 72.6184 155.967C72.6845 155.943 72.7454 155.91 72.7985 155.868C72.9203 155.755 73.0227 155.628 73.1025 155.489C73.3628 155.031 73.5885 154.559 73.7779 154.075L73.8792 153.826L73.5978 153.746L65.7178 151.475L65.5377 151.933C65.8541 152.036 66.1939 152.071 66.5284 152.033C66.8714 151.979 67.1821 151.82 67.4064 151.584C67.7827 151.151 68.0024 150.626 68.0368 150.08V149.911L67.8342 149.841L60.3707 147.411H60.2807H60.1906L53.6503 150.19L50.9148 150.887L48.5283 151.634L44.746 152.849L42.3707 153.626C42.0896 153.701 41.818 153.801 41.5602 153.925C41.8458 153.869 42.1277 153.8 42.4045 153.716L44.8135 153.029L48.6296 151.903L51.0161 151.196L53.7629 150.539L60.337 147.819H60.1456L67.5978 150.299L67.4177 150.06C67.3885 150.504 67.2123 150.93 66.9111 151.286C66.7487 151.428 66.5411 151.524 66.3158 151.559C66.0906 151.595 65.8584 151.569 65.6503 151.485L65.4702 151.953L73.2713 154.244L73.0912 153.915C72.9192 154.375 72.7046 154.821 72.4496 155.25C72.4013 155.339 72.3408 155.423 72.2695 155.499V155.499C72.301 155.534 72.324 155.575 72.337 155.618V155.618C72.2244 155.36 72.337 155.549 72.2582 155.499H72.1794C72.1278 155.537 72.0922 155.59 72.0781 155.648C72.0675 155.691 72.0691 155.735 72.0829 155.777C72.0967 155.819 72.1221 155.857 72.1569 155.887C72.2469 155.967 72.2244 155.937 72.2469 155.947H72.3482H72.5847L73.4514 156.047C74.5772 156.166 75.7029 156.256 76.9299 156.346L76.671 156.097C76.6448 156.303 76.5721 156.503 76.4571 156.684C76.1957 157.01 75.8604 157.283 75.4727 157.487C75.085 157.691 74.6535 157.822 74.2057 157.87C73.2682 158.004 72.3165 158.045 71.3689 157.989C69.5359 157.984 67.7129 157.749 65.9542 157.292H65.8417H65.7629L62.0143 158.188H61.7891V158.388C61.7891 159.075 61.8904 159.752 61.9355 160.38V160.619H62.2056L67.0574 160.42L66.7873 160.151C66.6184 161.147 66.4496 162.073 66.3032 162.94L66.4383 162.78C65.4321 163.003 64.4087 163.16 63.3764 163.248L60.4608 163.537C58.063 163.537 55.8904 163.537 53.988 163.378C53.1102 163.325 52.2375 163.219 51.3764 163.059C50.6685 162.881 49.988 162.627 49.3501 162.302L46.5808 161.087L45.8491 160.788C45.973 160.768 45.8942 160.738 45.8829 160.748Z" fill="#EB996E"/>
<path d="M55.2885 153.244C56.0025 154.304 56.9949 155.196 58.1816 155.844C59.2657 156.622 60.5426 157.161 61.9077 157.418C61.9752 157.278 60.3317 156.571 58.5305 155.426C56.7294 154.28 55.4236 153.145 55.2885 153.244Z" fill="#EB996E"/>
<path d="M0.435027 186.666L22.2399 185.042L47.9511 193.698L53.5796 196.746L45.5646 221.07C45.5646 221.07 5.27556 200.063 3.56449 198.27C2.02965 196.699 0.94412 194.825 0.399471 192.806C-0.145179 190.786 -0.132975 188.68 0.435027 186.666V186.666Z" fill="#FFB64F"/>
<path d="M116.831 204.548L124.328 208.662L107.015 268.974L110.155 303.747C105.653 307.193 94.3956 310.151 73.0072 309.076C51.6188 308 37.3449 299.762 37.3449 299.762L39.3936 263.994L44.2679 223.633L49.7276 196.032L66.2079 197.088L72.6357 193.721L75.5175 194.996L79.2099 204.06L88.8234 197.904L100.08 193.113L104.189 199.897L116.831 204.548Z" fill="#FFB64F"/>
<path d="M49.7305 203.051C49.4905 203.479 49.2946 203.926 49.1451 204.385C48.7849 205.262 48.3346 206.537 47.7943 208.13C46.4181 212.278 45.2908 216.488 44.4171 220.741C43.5702 224.993 42.9765 229.282 42.6385 233.59C42.5147 235.243 42.4584 236.578 42.4472 237.505C42.3892 237.985 42.3892 238.469 42.4472 238.949C42.554 238.476 42.618 237.996 42.6385 237.514C42.7398 236.518 42.8637 235.194 43.0213 233.62C43.3702 230.333 43.9669 225.791 44.9687 220.83C45.9706 215.87 47.1639 211.427 48.1207 208.23C48.5823 206.706 48.9763 205.431 49.2464 204.445C49.4656 203.997 49.6279 203.53 49.7305 203.051V203.051Z" fill="#263238"/>
<path d="M82.2848 203.528C82.8337 203.445 83.3604 203.273 83.8383 203.02C85.1713 202.399 86.3264 201.516 87.2154 200.44L86.8102 200.341C87.0445 203.312 87.7221 206.242 88.8252 209.056L88.949 209.375L89.2642 209.186L90.0522 208.698C93.9359 206.337 97.4256 204.175 99.9359 202.582L102.885 200.679C103.262 200.462 103.609 200.208 103.921 199.922C103.522 200.08 103.144 200.277 102.795 200.51L99.7445 202.283C97.1667 203.787 93.6432 205.909 89.7708 208.259L88.9715 208.737L89.4218 208.867C88.3289 206.094 87.6183 203.214 87.3055 200.291V199.753L86.9565 200.191C86.1193 201.249 85.042 202.142 83.7933 202.811C82.8139 203.299 82.2623 203.478 82.2848 203.528Z" fill="#263238"/>
<path d="M66.8744 198.16C67.9852 199.466 69.2083 200.695 70.5329 201.835L70.7355 202.024L70.9382 201.825C71.6941 201.042 72.5103 200.307 73.3809 199.624C73.8537 199.265 74.3153 198.927 74.7768 198.628L75.4635 198.179C75.5151 198.168 75.5679 198.161 75.6211 198.16C75.6211 198.16 75.6211 198.16 75.7224 198.309L76.7693 200.68C77.0547 201.428 77.4322 202.146 77.895 202.821C77.7552 202.042 77.5135 201.28 77.1746 200.55C76.8819 199.803 76.5667 198.996 76.2402 198.14C76.2104 198.048 76.1601 197.964 76.0924 197.89C76.0248 197.816 75.941 197.756 75.8462 197.711C75.7372 197.679 75.6211 197.67 75.5075 197.686C75.3939 197.702 75.2862 197.741 75.1933 197.801L74.4729 198.259C73.9888 198.568 73.5048 198.917 73.032 199.255C72.1348 199.952 71.3063 200.715 70.5554 201.536H70.9607C69.6995 200.319 68.3333 199.19 66.8744 198.16V198.16Z" fill="#263238"/>
<path d="M71.3282 306.463C64.1113 305.263 56.6761 305.589 49.6284 307.413C42.5806 309.238 36.1195 312.509 30.7712 316.962C25.4229 321.414 21.3386 326.921 18.851 333.034C16.3634 339.148 15.5428 345.695 16.456 352.142C17.3692 358.589 19.9904 364.754 24.1062 370.135C28.222 375.516 33.7159 379.961 40.1405 383.107C46.5652 386.254 53.739 388.013 61.0776 388.242C68.4162 388.471 75.7122 387.163 82.3714 384.425V384.425C91.3239 380.737 98.7219 374.629 103.499 366.981C108.276 359.333 110.186 350.541 108.952 341.871C107.719 333.201 103.407 325.102 96.637 318.74C89.8672 312.379 80.9894 308.083 71.2832 306.473L71.3282 306.463ZM54.7016 384.833C44.5212 383.132 35.3627 378.268 28.8769 371.119C22.3911 363.97 19.0046 355.006 19.328 345.844C19.6513 336.681 23.6631 327.921 30.6403 321.144C37.6175 314.367 47.101 310.019 57.3816 308.882C67.6621 307.746 78.0634 309.896 86.7106 314.945C95.3577 319.995 101.682 327.612 104.543 336.422C107.405 345.233 106.615 354.659 102.316 363C98.018 371.341 90.4935 378.049 81.0994 381.915C72.8611 385.305 63.6293 386.326 54.7016 384.833V384.833Z" fill="#455A64"/>
<path d="M62.8115 390.272C75.0924 390.287 86.9337 386.23 96.0001 378.9C105.066 371.57 110.7 361.5 111.788 350.676C112.877 339.852 109.343 329.061 101.882 320.429C94.4217 311.797 83.5765 305.953 71.4858 304.048C59.3951 302.143 46.9366 304.317 36.5675 310.139C26.1985 315.962 18.6717 325.011 15.4716 335.502C12.2715 345.994 13.6305 357.165 19.2806 366.813C24.9306 376.461 34.4615 383.886 45.9935 387.623C51.3796 389.375 57.073 390.272 62.8115 390.272V390.272ZM62.7102 310.477C68.4535 310.474 74.1344 311.531 79.3895 313.581C84.6447 315.631 89.3583 318.629 93.229 322.383C97.0996 326.138 100.042 330.566 101.868 335.384C103.694 340.202 104.363 345.304 103.833 350.365C103.303 355.425 101.585 360.331 98.7885 364.77C95.9926 369.209 92.1802 373.083 87.5954 376.144C83.0106 379.204 77.7543 381.384 72.1628 382.545C66.5712 383.705 60.7675 383.82 55.1229 382.882V382.882C48.6797 381.8 42.6186 379.381 37.4383 375.822C32.258 372.264 28.1066 367.668 25.3255 362.412C22.4032 356.849 21.1112 350.724 21.5687 344.602C22.0261 338.481 24.2184 332.56 27.9431 327.385C31.6679 322.211 36.8053 317.95 42.8814 314.995C48.9576 312.04 55.7768 310.486 62.7102 310.477V310.477Z" fill="#455A64"/>
<path d="M176.181 306.733L175.764 305.837C174.886 303.915 172.95 302.789 171.441 303.337L103.291 327.87C102.953 327.99 102.841 328.438 103.032 328.866L105.936 335.181C106.139 335.609 106.567 335.859 106.905 335.739L175.055 311.156C176.563 310.608 177.07 308.616 176.181 306.733Z" fill="#455A64"/>
<path d="M112.531 237.247L120.726 261.242L116.617 310.149L128.707 311.494C128.707 311.494 142.553 269.878 141.18 262.347C139.807 254.817 134.156 232.884 134.156 232.884L112.531 237.247Z" fill="#FFBE9D"/>
<path d="M116.653 309.799L111.025 318.305L107.512 326.274L112.769 324.451C112.769 324.451 115.021 334.073 115.933 334.322C116.844 334.571 119.377 333.794 119.118 331.951C119.494 332.275 119.947 332.518 120.444 332.663C120.942 332.808 121.47 332.851 121.989 332.788C123.587 332.499 123.97 331.583 123.79 329.8C123.79 329.8 125.648 331.135 126.762 330.308C127.103 330.011 127.369 329.653 127.541 329.258C127.714 328.863 127.79 328.44 127.764 328.017C127.764 328.017 130.184 328.196 130.522 327.091C130.877 325.274 130.923 323.421 130.657 321.592C130.375 320.377 129.205 315.437 129.205 315.437L128.664 311.452L116.653 309.799Z" fill="#FFBE9D"/>
<path d="M117.968 326.402C118.407 327.268 118.691 328.188 118.812 329.131C119.09 330.049 119.208 331 119.161 331.95C118.72 331.085 118.435 330.164 118.317 329.221C118.038 328.302 117.921 327.352 117.968 326.402V326.402Z" fill="#EB996E"/>
<path d="M122.901 325.296C123.315 325.967 123.571 326.706 123.656 327.467C123.906 328.202 123.994 328.973 123.915 329.738C123.51 329.059 123.254 328.319 123.16 327.557C122.916 326.824 122.829 326.057 122.901 325.296V325.296Z" fill="#EB996E"/>
<path d="M127.018 324.272C127.263 324.876 127.392 325.513 127.401 326.155C127.592 327.151 127.896 327.997 127.75 328.047C127.25 327.538 126.953 326.897 126.906 326.224C126.735 325.577 126.774 324.9 127.018 324.272V324.272Z" fill="#EB996E"/>
<path d="M112.398 321.67C112.834 322.52 113.137 323.418 113.299 324.339C113.625 325.227 113.822 326.147 113.884 327.079C113.341 326.271 112.978 325.378 112.815 324.449C112.483 323.553 112.342 322.611 112.398 321.67V321.67Z" fill="#EB996E"/>
<path d="M141.847 278.501C141.847 277.684 145.629 266.289 144.481 260.382C143.333 254.475 129.599 214.563 127.753 211.714C126.299 209.793 124.268 208.268 121.888 207.312C119.238 208.582 116.905 210.312 115.027 212.399C113.149 214.485 111.765 216.884 110.958 219.454C108.2 228.209 108.2 239.196 108.2 239.196L119.243 263.43L117.926 277.196L141.847 278.501Z" fill="#FFB64F"/>
<path d="M108.897 238.4C109.01 238.4 108.796 236.607 108.897 233.739C108.966 232.07 109.151 230.407 109.449 228.758C110.165 224.692 111.577 220.745 113.637 217.055C114.474 215.548 115.413 214.088 116.451 212.682C118.23 210.271 119.558 208.927 119.479 208.867C119.112 209.136 118.78 209.44 118.488 209.773C117.646 210.62 116.864 211.511 116.147 212.443C115.052 213.836 114.067 215.293 113.198 216.806C111.066 220.527 109.633 224.53 108.954 228.659C108.684 230.342 108.541 232.039 108.526 233.739C108.508 234.88 108.572 236.021 108.717 237.155C108.732 237.574 108.793 237.991 108.897 238.4V238.4Z" fill="#263238"/>
<path d="M109.601 243.468C109.877 244.491 110.253 245.491 110.727 246.456C111.526 248.299 112.731 250.799 114.104 253.528L117.661 260.501C118.094 261.491 118.606 262.453 119.192 263.379C118.917 262.356 118.54 261.356 118.067 260.391C117.267 258.548 116.063 256.048 114.69 253.319L111.132 246.346C110.699 245.356 110.188 244.394 109.601 243.468V243.468Z" fill="#263238"/>
<path d="M118.602 264.368C121.031 263.221 123.561 262.248 126.166 261.459C128.832 260.844 131.55 260.421 134.294 260.194C133.488 260.039 132.66 259.998 131.84 260.075C129.859 260.158 127.897 260.456 125.997 260.961C124.096 261.465 122.273 262.178 120.572 263.083C119.842 263.415 119.176 263.849 118.602 264.368V264.368Z" fill="#263238"/>
<path d="M46.7117 333.008C46.6104 333.117 55.481 339.98 66.5354 348.357C77.5899 356.734 86.6293 363.418 86.7306 363.298C86.8319 363.179 77.9613 356.326 66.9069 347.959C55.8525 339.592 46.8131 332.898 46.7117 333.008Z" fill="white"/>
<path d="M35.2984 333.008C35.1858 333.118 42.6605 338.985 51.9926 346.047C61.3247 353.109 68.957 358.806 69.0695 358.697C69.1821 358.587 61.6962 352.72 52.3753 345.658C43.0545 338.596 35.3997 332.899 35.2984 333.008Z" fill="white"/>
<path d="M18.4928 347.001C18.4928 347.001 18.4928 346.792 18.5603 346.374C18.6279 345.955 18.6279 345.318 18.6954 344.511C18.6954 344.102 18.6954 343.644 18.7855 343.146C18.8755 342.648 18.9656 342.1 19.0669 341.503C19.1682 340.905 19.2808 340.278 19.4046 339.6C19.5284 338.923 19.7874 338.226 19.9787 337.469C21.0175 333.808 22.672 330.306 24.8868 327.08C27.7854 322.793 31.588 319.04 36.0876 316.023L37.99 314.768C38.6655 314.38 39.3634 314.031 40.0613 313.653C40.7593 313.274 41.446 312.856 42.2114 312.547L44.4628 311.551L45.5886 311.063L46.8156 310.674L49.2921 309.878C50.1364 309.629 51.0144 309.469 51.8812 309.26C52.7577 309.034 53.6486 308.854 54.5492 308.722C56.3859 308.42 58.244 308.231 60.1102 308.154C61.0557 308.154 62.0126 308.045 62.9807 308.055L65.885 308.194C66.3803 308.194 66.8756 308.194 67.3597 308.274L68.8231 308.473C69.8025 308.623 70.8044 308.722 71.7837 308.901C73.7744 309.295 75.7337 309.804 77.6487 310.425C79.6137 311.053 81.5281 311.798 83.3785 312.657C84.3128 313.105 85.2021 313.653 86.1252 314.101C86.5755 314.36 87.0483 314.579 87.4761 314.858L88.7706 315.725C92.3906 318.008 95.5558 320.809 98.1365 324.012L99.1496 325.207L100.039 326.492L100.917 327.777C101.228 328.199 101.503 328.642 101.739 329.102L103.225 331.841C103.63 332.837 104.024 333.763 104.418 334.729C107.442 342.692 107.442 351.31 104.418 359.273C104.013 360.269 103.619 361.195 103.225 362.151C102.831 363.108 102.223 363.984 101.728 364.9L101.356 365.578L100.906 366.225L100.028 367.51L99.1384 368.795L98.1252 369.99C96.8075 371.562 95.3748 373.056 93.8363 374.463C92.2652 375.806 90.5996 377.06 88.8494 378.218L87.5549 379.074C87.1158 379.363 86.643 379.573 86.1928 379.832C85.2697 380.31 84.3804 380.828 83.4573 381.276C81.6043 382.136 79.686 382.882 77.7162 383.507C75.8012 384.128 73.842 384.638 71.8513 385.031C70.8719 385.21 69.87 385.31 68.8907 385.459L67.4272 385.658C66.9319 385.718 66.4479 385.708 65.9526 385.738L63.0482 385.878C62.0801 385.878 61.1233 385.808 60.1777 385.778C58.3115 385.702 56.4535 385.512 54.6167 385.21C53.715 385.083 52.8238 384.903 51.9488 384.672C51.082 384.463 50.1927 384.304 49.3597 384.065L46.8831 383.258L45.6561 382.869L44.5304 382.381L42.279 381.385C41.5135 381.077 40.8381 380.638 40.1289 380.28C39.4197 379.921 38.733 379.553 38.0576 379.164L36.1551 377.909C31.6529 374.895 27.8498 371.141 24.9544 366.853C22.7231 363.652 21.046 360.174 19.9787 356.533C19.7874 355.776 19.4947 355.089 19.4046 354.402C19.3146 353.715 19.1682 353.087 19.0669 352.499C18.9656 351.912 18.8418 351.364 18.7855 350.866C18.7292 350.368 18.7179 349.87 18.6954 349.491C18.6279 348.694 18.5829 348.077 18.5603 347.639C18.5603 347.22 18.4928 347.001 18.4928 347.001C18.4928 347.001 18.4928 347.22 18.4928 347.639C18.4928 348.057 18.4928 348.694 18.5716 349.501C18.5716 349.913 18.5941 350.371 18.6391 350.876C18.6391 351.374 18.7967 351.922 18.8868 352.519L19.202 354.432C19.3488 355.157 19.5367 355.875 19.7649 356.583C20.7578 360.279 22.3906 363.817 24.6054 367.072C27.5058 371.412 31.3285 375.214 35.8624 378.268L37.7761 379.543C38.4516 379.931 39.1608 380.3 39.8587 380.678C40.5566 381.057 41.2546 381.485 42.02 381.804L44.3277 382.8L45.4535 383.288L46.6917 383.696L49.1908 384.503C50.0351 384.762 50.9244 384.921 51.8137 385.131C52.6947 385.369 53.5938 385.552 54.5041 385.678C56.3622 385.992 58.2431 386.189 60.1327 386.266C61.1008 386.266 62.0576 386.386 63.037 386.376L65.9863 386.246C66.4704 386.246 66.977 386.246 67.4723 386.166L68.9582 385.967C69.9488 385.818 70.9507 385.718 71.9526 385.539C73.9666 385.146 75.9485 384.633 77.8851 384.005C79.8837 383.379 81.8287 382.627 83.705 381.754C84.6393 381.306 85.5399 380.758 86.4742 380.3C86.9357 380.041 87.4198 379.822 87.8588 379.533L89.1309 378.646C90.9106 377.484 92.5993 376.216 94.1853 374.851C95.7604 373.423 97.22 371.899 98.553 370.289L99.5887 369.084L100.478 367.779L101.379 366.474L101.829 365.827L102.212 365.13L103.765 362.35L104.981 359.432C108.051 351.354 108.051 342.609 104.981 334.53L103.765 331.632C103.258 330.705 102.752 329.779 102.257 328.853C102.012 328.389 101.734 327.94 101.424 327.508L100.523 326.203L99.6224 324.908L98.598 323.703C97.2582 322.098 95.7991 320.574 94.2303 319.141C92.6443 317.776 90.9556 316.509 89.1759 315.346L87.8588 314.479C87.4165 314.2 86.9581 313.94 86.4854 313.702C85.5511 313.224 84.6505 312.706 83.7162 312.248C81.8377 311.379 79.893 310.627 77.8963 309.997C75.9598 309.369 73.9778 308.857 71.9638 308.463C70.962 308.284 69.9601 308.184 68.9695 308.035L67.4835 307.836C66.9882 307.786 66.4929 307.786 65.9976 307.756L63.0482 307.626C62.0801 307.626 61.112 307.706 60.1552 307.736C58.2656 307.813 56.3847 308.01 54.5266 308.324C53.6187 308.46 52.7204 308.643 51.8362 308.872C50.9582 309.081 50.0688 309.25 49.2133 309.499L46.7143 310.306L45.4872 310.714L44.3615 311.212L42.1101 312.208C41.3646 312.547 40.6395 312.919 39.9375 313.324C39.2396 313.702 38.5304 314.071 37.8549 314.46L35.9412 315.734C31.4073 318.788 27.5846 322.59 24.6842 326.93C22.4694 330.185 20.8366 333.723 19.8436 337.419C19.6523 338.176 19.3708 338.883 19.2808 339.57C19.1907 340.258 19.0669 340.895 18.9656 341.483C18.8643 342.071 18.763 342.628 18.7179 343.126C18.6729 343.624 18.7179 344.122 18.6504 344.501C18.6504 345.308 18.6504 345.925 18.5716 346.364C18.4928 346.802 18.4928 347.001 18.4928 347.001Z" fill="#263238"/>
<path d="M34.8257 367.789C34.4811 367.324 34.1052 366.878 33.7 366.454C32.6767 365.261 31.7369 364.013 30.8857 362.719C28.0377 358.462 26.2616 353.711 25.6788 348.791C25.096 343.871 25.7201 338.898 27.5086 334.211C28.0482 332.791 28.6758 331.397 29.3885 330.038C29.6899 329.554 29.9495 329.052 30.1653 328.534C30.1653 328.534 30.0527 328.643 29.8838 328.882C29.715 329.121 29.4673 329.47 29.1859 329.948C28.3834 331.282 27.6948 332.667 27.1259 334.092C25.1968 338.809 24.4985 343.852 25.0834 348.842C25.6682 353.832 27.5209 358.641 30.503 362.908C31.4001 364.195 32.4009 365.423 33.4974 366.583C33.8801 366.992 34.2178 367.291 34.4317 367.5C34.6456 367.709 34.8032 367.799 34.8257 367.789Z" fill="#263238"/>
<path d="M37.151 371.366C37.0722 371.495 37.4212 371.804 37.9278 372.063C38.4343 372.322 38.9184 372.421 38.9972 372.302C39.076 372.182 38.727 371.864 38.2205 371.605C37.7139 371.346 37.2298 371.246 37.151 371.366Z" fill="#263238"/>
<path d="M95.1971 363.763C95.3101 363.619 95.401 363.461 95.4673 363.295C95.6249 362.986 95.8725 362.528 96.1315 361.911C96.881 360.181 97.4794 358.403 97.9213 356.592C99.4031 350.581 99.2296 344.343 97.4154 338.404C95.6012 332.464 92.1995 326.998 87.4973 322.466C86.0918 321.091 84.5634 319.819 82.9269 318.661C82.3641 318.243 81.88 317.964 81.5648 317.755C81.2496 317.546 81.0808 317.456 81.0583 317.476C81.0357 317.496 81.6661 317.964 82.7806 318.821C84.3483 320.027 85.8225 321.325 87.1933 322.705C91.759 327.25 95.0674 332.672 96.857 338.543C98.6466 344.414 98.8684 350.572 97.5048 356.532C97.0967 358.331 96.5552 360.105 95.8838 361.841C95.4448 363.076 95.1521 363.753 95.1971 363.763Z" fill="white"/>
<path d="M69.0667 314.948C70.7661 315.415 72.5603 315.548 74.3237 315.337C73.5061 315.015 72.6178 314.859 71.7234 314.879C70.8426 314.731 69.936 314.755 69.0667 314.948V314.948Z" fill="white"/>
</g>
<defs>
<clipPath id="clip0_36438_10">
<rect width="440" height="470" fill="white"/>
</clipPath>
</defs>
</svg>
